<svg version="1.1" xmlns="http://www.w3.org/2000/svg" xmlns:xlink="http://www.w3.org/1999/xlink" width="8.375" height="8.29166"><defs><radialGradient cx="240" cy="180" r="4.02597" gradientUnits="userSpaceOnUse" id="color-1"><stop offset="0" stop-color="#ffa100"/><stop offset="1" stop-color="#ffa100" stop-opacity="0"/></radialGradient><linearGradient x1="239.92856" y1="177.53327" x2="239.92856" y2="181.60957" gradientUnits="userSpaceOnUse" id="color-2"><stop offset="0" stop-color="#ffd124"/><stop offset="1" stop-color="#ff4524"/></linearGradient></defs><g transform="translate(-235.77404,-175.8125)"><g data-paper-data="{&quot;isPaintingLayer&quot;:true}" fill="none" fill-rule="nonzero" stroke="none" stroke-width="none" stroke-linecap="butt" stroke-linejoin="miter" stroke-miterlimit="10" stroke-dasharray="" stroke-dashoffset="0" font-family="none" font-weight="none" font-size="none" text-anchor="none" style="mix-blend-mode: normal"><path d="M244,180c0,2.18613 -1.79086,3.95834 -4,3.95834c-2.20914,0 -4,-1.77221 -4,-3.95834c0,-2.18613 1.79086,-3.95834 4,-3.95834c2.20914,0 4,1.77221 4,3.95834z" data-paper-data="{&quot;origPos&quot;:null}" fill="#000000" stroke="none" stroke-width="0"/><path d="M243.96154,179.95834c0,2.18613 -1.79086,3.95833 -4,3.95833c-2.20914,0 -4,-1.7722 -4,-3.95833c0,-2.18613 1.79086,-3.95834 4,-3.95834c2.20914,0 4,1.77221 4,3.95834z" data-paper-data="{&quot;origPos&quot;:null}" fill="none" stroke="#ffffff" stroke-width="0.375"/><path d="M244.02597,180c0,2.16969 -1.80249,3.92857 -4.02597,3.92857c-2.22348,0 -4.02597,-1.75888 -4.02597,-3.92857c0,-2.16969 1.80249,-3.92857 4.02597,-3.92857c2.22348,0 4.02597,1.75888 4.02597,3.92857z" data-paper-data="{&quot;origPos&quot;:null}" fill="url(#color-1)" stroke="none" stroke-width="0"/><path d="M237.01804,182.21861l-0.45437,-0.96717l3.91828,-1.84079l0.45437,0.96717z" data-paper-data="{&quot;origPos&quot;:null,&quot;origRot&quot;:0}" fill="#9e5f29" stroke="none" stroke-width="0"/><path d="M237.60101,182.15743l0.29765,-1.23315l3.95242,0.95401l-0.29765,1.23315z" data-paper-data="{&quot;origPos&quot;:null,&quot;origRot&quot;:0}" fill="#9e5f29" stroke="none" stroke-width="0"/><path d="M238.54191,180.34598l0.55858,-1.04034l4.21473,2.26298l-0.55858,1.04034z" data-paper-data="{&quot;origPos&quot;:null,&quot;origRot&quot;:0}" fill="#9e5f29" stroke="none" stroke-width="0"/><path d="M241.98429,180.10915c0,1.4553 -0.98011,1.22969 -2.11461,1.22969c-1.1345,0 -1.94344,0.89197 -1.99378,-0.56214c-0.03246,-0.93753 0.20362,-2.23552 0.20362,-2.23552l0.9665,1.23672l0.29782,-2.24462l0.88835,1.02998l0.78397,-0.87564c0,0 0.96814,0.96624 0.96814,2.42153z" data-paper-data="{&quot;origPos&quot;:null}" fill="url(#color-2)" stroke="none" stroke-width="0"/></g></g></svg>