<svg version="1.1" xmlns="http://www.w3.org/2000/svg" xmlns:xlink="http://www.w3.org/1999/xlink" width="15.92308" height="16"><g transform="translate(-232,-172)"><g data-paper-data="{&quot;isPaintingLayer&quot;:true}" fill="none" fill-rule="nonzero" stroke="none" stroke-width="0" stroke-linecap="butt" stroke-linejoin="miter" stroke-miterlimit="10" stroke-dasharray="" stroke-dashoffset="0" font-family="none" font-weight="none" font-size="none" text-anchor="none" style="mix-blend-mode: normal"><g data-paper-data="{&quot;origPos&quot;:null}" fill="#000000"><path d="M236,174c0,1.10457 -0.89543,2 -2,2c-1.10457,0 -2,-0.89543 -2,-2c0,-1.10457 0.89543,-2 2,-2c1.10457,0 2,0.89543 2,2z" data-paper-data="{&quot;origPos&quot;:null}"/><path d="M236,186c0,1.10457 -0.89543,2 -2,2c-1.10457,0 -2,-0.89543 -2,-2c0,-1.10457 0.89543,-2 2,-2c1.10457,0 2,0.89543 2,2z" data-paper-data="{&quot;origPos&quot;:null}"/><path d="M247.92308,174c0,1.10457 -0.89543,2 -2,2c-1.10457,0 -2,-0.89543 -2,-2c0,-1.10457 0.89543,-2 2,-2c1.10457,0 2,0.89543 2,2z" data-paper-data="{&quot;origPos&quot;:null}"/><path d="M247.92308,186c0,1.10457 -0.89543,2 -2,2c-1.10457,0 -2,-0.89543 -2,-2c0,-1.10457 0.89543,-2 2,-2c1.10457,0 2,0.89543 2,2z" data-paper-data="{&quot;origPos&quot;:null}"/></g><g data-paper-data="{&quot;origPos&quot;:null}" fill="#000000"><path d="M232,186.15385v-12.07692h15.92308v12.07692z" data-paper-data="{&quot;origPos&quot;:null}"/><path d="M234,188v-16h12v16z" data-paper-data="{&quot;origPos&quot;:null}"/></g><path d="M241.35857,184.11235l-2.45517,-4.16097l2.45517,-3.93874h2.20935l-2.45517,3.93874l2.45517,4.16097z" data-paper-data="{&quot;origPos&quot;:null}" fill="#ffffff"/><path d="M236.43208,183.98736l2.45517,-4.16097l-2.45517,-3.93874h2.20935l2.45517,3.93874l-2.45517,4.16097z" data-paper-data="{&quot;origPos&quot;:null,&quot;index&quot;:null}" fill="#ffffff"/></g></g></svg>