<svg version="1.1" xmlns="http://www.w3.org/2000/svg" xmlns:xlink="http://www.w3.org/1999/xlink" width="31.96154" height="16"><g transform="translate(-224.01923,-172)"><g data-paper-data="{&quot;isPaintingLayer&quot;:true}" fill="none" fill-rule="nonzero" stroke="none" stroke-width="none" stroke-linecap="butt" stroke-linejoin="miter" stroke-miterlimit="10" stroke-dasharray="" stroke-dashoffset="0" font-family="none" font-weight="none" font-size="none" text-anchor="none" style="mix-blend-mode: normal"><g data-paper-data="{&quot;origPos&quot;:null}" fill="#000000" stroke-width="0"><g data-paper-data="{&quot;origPos&quot;:null}"><path d="M228.01923,174c0,1.10457 -0.89543,2 -2,2c-1.10457,0 -2,-0.89543 -2,-2c0,-1.10457 0.89543,-2 2,-2c1.10457,0 2,0.89543 2,2z" data-paper-data="{&quot;origPos&quot;:null}"/><path d="M228.01923,186c0,1.10457 -0.89543,2 -2,2c-1.10457,0 -2,-0.89543 -2,-2c0,-1.10457 0.89543,-2 2,-2c1.10457,0 2,0.89543 2,2z" data-paper-data="{&quot;origPos&quot;:null}"/><path d="M255.94231,174c0,1.10457 -0.89543,2 -2,2c-1.10457,0 -2,-0.89543 -2,-2c0,-1.10457 0.89543,-2 2,-2c1.10457,0 2,0.89543 2,2z" data-paper-data="{&quot;origPos&quot;:null}"/><path d="M255.94231,186c0,1.10457 -0.89543,2 -2,2c-1.10457,0 -2,-0.89543 -2,-2c0,-1.10457 0.89543,-2 2,-2c1.10457,0 2,0.89543 2,2z" data-paper-data="{&quot;origPos&quot;:null}"/></g><g data-paper-data="{&quot;origPos&quot;:null}"><path d="M224.05769,186.15385v-12.07692h31.92308v12.07692z" data-paper-data="{&quot;origPos&quot;:null}"/><path d="M226.05769,188v-16h28v16z" data-paper-data="{&quot;origPos&quot;:null}"/></g></g><g data-paper-data="{&quot;origPos&quot;:null}" fill="#ffffff" stroke-width="1"><path d="M234.4914,184.4322v-8.86441h1.26635v3.79904h2.53269v-3.79904h1.26635v8.86441h-1.26635v-3.79904h-2.53269v3.79904z" data-paper-data="{&quot;origPos&quot;:null}" id="XMLID_106_"/><path d="M241.62815,184.4322l-1.26635,-1.26635v-6.33172l1.26635,-1.26635h2.53269l1.26635,1.26635v6.33172l-1.26635,1.26635zM243.52767,183.16586l0.63317,-0.63317v-5.06537l-0.63317,-0.63317h-1.26635l-0.63317,0.63317v5.06537l0.63317,0.63317z" data-paper-data="{&quot;origPos&quot;:null}" id="XMLID_91_"/><path d="M246.14176,184.4322v-8.86441h3.79904l1.26635,1.26635v2.53269l-1.26635,1.26635h-2.53269v3.79904zM249.30762,179.36683l0.63317,-0.63317v-1.26635l-0.63317,-0.63317h-1.89951v2.53269z" data-paper-data="{&quot;origPos&quot;:null}" id="XMLID_88_"/><path d="M230.0592,184.4322l-1.26635,-1.26635v-1.26635h1.26635v0.63317l0.63317,0.63317h1.26635l0.63317,-0.63317v-1.26635l-0.63317,-0.63317h-1.89951l-1.26635,-1.26635v-2.53269l1.26635,-1.26635h2.53269l1.26635,1.26635v1.26635h-1.26635v-0.63317l-0.63317,-0.63317h-1.26635l-0.63317,0.63317v1.26635l0.63317,0.63317h1.89951l1.26635,1.26635v2.53269l-1.26635,1.26635z" data-paper-data="{&quot;origPos&quot;:null}" id="XMLID_80_"/></g></g></g></svg>